<?xml version="1.0" encoding="utf-8"?>
<!-- Generator: Adobe Illustrator 16.0.0, SVG Export Plug-In . SVG Version: 6.00 Build 0)  -->
<!DOCTYPE svg PUBLIC "-//W3C//DTD SVG 1.1//EN" "http://www.w3.org/Graphics/SVG/1.1/DTD/svg11.dtd">
<svg version="1.1" id="Layer_1" xmlns="http://www.w3.org/2000/svg" xmlns:xlink="http://www.w3.org/1999/xlink" x="0px" y="0px"
	 width="232.334px" height="132.926px" viewBox="0 0 232.334 132.926" enable-background="new 0 0 232.334 132.926"
	 xml:space="preserve">
<g id="clous">
	<path fill="#FFFFFF" stroke="#231F20" stroke-width="4" stroke-miterlimit="10" d="M66.551,100.926
		c-0.578,0-1.145,0.041-1.705,0.104C61.574,93.33,53.943,87.928,45.05,87.928c-8.893,0-16.524,5.402-19.795,13.102
		c-0.56-0.062-1.127-0.104-1.704-0.104c-8.284,0-15,6.717-15,15c0,8.285,6.716,15,15,15c3.691,0,7.065-1.338,9.679-3.551
		c3.393,2.24,7.452,3.551,11.82,3.551c4.369,0,8.429-1.311,11.821-3.551c2.613,2.211,5.988,3.551,9.68,3.551c8.284,0,15-6.715,15-15
		C81.551,107.643,74.835,100.926,66.551,100.926z"/>
</g>
<g id="Layer_1_1_">
	<path fill="#EA5744" stroke="#231F20" stroke-width="4" stroke-miterlimit="10" d="M20.541,65.032c0,0-6.731,4.366-11.397,10.233
		C5.919,79.323,2.61,88.979,2.37,90.125c-0.541,2.588-0.328,10.6-0.328,10.6s6.97-10.27,8.551-12.383
		c1.147-1.533,10.955-8.949,10.955-8.949"/>
	<path fill="#EA5744" stroke="#231F20" stroke-width="4" stroke-miterlimit="10" d="M5.137,86.666"/>
	<path fill="#EA5744" stroke="#231F20" stroke-width="4" stroke-miterlimit="10" d="M68.562,65.032c0,0,6.731,4.366,11.397,10.233
		c3.226,4.058,6.534,13.713,6.774,14.859c0.541,2.588,0.328,10.6,0.328,10.6s-6.971-10.27-8.551-12.383
		c-1.148-1.533-10.955-8.949-10.955-8.949"/>
	<path fill="#C4C8CC" stroke="#231F20" stroke-width="4" stroke-miterlimit="10" d="M44.724,2.974c0,0-24.184,26.61-24.184,59.438
		c0,11.068,1.234,21.426,3.378,30.301h41.609c2.145-8.875,3.379-19.232,3.379-30.301C68.906,29.585,44.724,2.974,44.724,2.974z
		 M44.723,63.284c-5.954,0-10.781-4.957-10.781-11.072c0-6.115,4.827-11.072,10.781-11.072s10.781,4.957,10.781,11.072
		C55.504,58.327,50.677,63.284,44.723,63.284z"/>
	<line fill="none" stroke="#231F20" stroke-width="4" stroke-miterlimit="10" x1="29.285" y1="26.821" x2="60.162" y2="26.821"/>
	<line fill="none" stroke="#231F20" stroke-width="4" stroke-miterlimit="10" x1="21.83" y1="81.568" x2="67.617" y2="81.568"/>
</g>
<g id="person">
	
		<line fill="none" stroke="#231F20" stroke-width="4" stroke-linecap="round" stroke-linejoin="round" stroke-miterlimit="10" x1="185" y1="128.084" x2="201" y2="92.391"/>
	
		<line fill="none" stroke="#231F20" stroke-width="4" stroke-linecap="round" stroke-linejoin="round" stroke-miterlimit="10" x1="201" y1="92.391" x2="202.334" y2="47.026"/>
	
		<line fill="none" stroke="#231F20" stroke-width="4" stroke-linecap="round" stroke-linejoin="round" stroke-miterlimit="10" x1="201" y1="62.36" x2="185" y2="69.709"/>
	
		<line fill="none" stroke="#231F20" stroke-width="4" stroke-linecap="round" stroke-linejoin="round" stroke-miterlimit="10" x1="204.334" y1="62.36" x2="223.334" y2="58.693"/>
	
		<line fill="none" stroke="#231F20" stroke-width="4" stroke-linecap="round" stroke-linejoin="round" stroke-miterlimit="10" x1="223.334" y1="58.693" x2="230.334" y2="49.36"/>
	
		<circle fill="none" stroke="#231F20" stroke-width="4" stroke-linecap="round" stroke-linejoin="round" stroke-miterlimit="10" cx="201.501" cy="34.167" r="12.167"/>
	
		<line fill="none" stroke="#231F20" stroke-width="4" stroke-linecap="round" stroke-linejoin="round" stroke-miterlimit="10" x1="201" y1="92.391" x2="216.334" y2="128.084"/>
	
		<line fill="none" stroke="#231F20" stroke-width="4" stroke-linecap="round" stroke-linejoin="round" stroke-miterlimit="10" x1="170" y1="70" x2="185" y2="70"/>
</g>
<g id="button">
	<path fill="#FF0000" d="M166,64.296c0-1.268-1.028-2.296-2.296-2.296h-0.408c-1.268,0-2.296,1.028-2.296,2.296v0.408
		c0,1.268,1.028,2.296,2.296,2.296h0.408c1.268,0,2.296-1.028,2.296-2.296V64.296z"/>
	<rect x="157" y="65" fill="#808080" width="13" height="9"/>
	<path fill="none" stroke="#000000" stroke-width="2" stroke-miterlimit="10" d="M163.333,72.667
		c0.223,3.194-0.818,6.04-2.334,8.758c-1.906,3.421-2.51,3.229-6.073,3.242c-4.741,0.019-8.727,0.743-10.918,4.909
		c-2.046,3.887,1.291,9.021,0.659,14.041c-0.416,3.306-2.373,4.673-6.007,5.738c-3.437,1.01-8.733,0.104-12.298-0.072
		c0.175-0.741-0.236-1.746-0.065-2.491c-4.468-0.625-5.726,2.065-9.246,3.591c-0.251,3.621,0.285,7.375-0.043,11.01
		c-0.647,7.155-10.859,6.849-16.618,6.972c-9.236,0.196-3.311-5.334,2.583-4.979c1.17,5.021-5.912,6.639-9.397,6.949
		c-4.454,0.396-9.583-1.107-13.723-0.355c-1.332,0.242-2.068,1.141-3.52,1.355c-0.951,0.143-2.036,0-3,0"/>
</g>
</svg>
