<?xml version="1.0" encoding="utf-8"?>
<!-- Generator: Adobe Illustrator 16.0.0, SVG Export Plug-In . SVG Version: 6.00 Build 0)  -->
<!DOCTYPE svg PUBLIC "-//W3C//DTD SVG 1.1//EN" "http://www.w3.org/Graphics/SVG/1.1/DTD/svg11.dtd">
<svg version="1.1" id="Layer_1" xmlns="http://www.w3.org/2000/svg" xmlns:xlink="http://www.w3.org/1999/xlink" x="0px" y="0px"
	 width="295.593px" height="180.18px" viewBox="0 0 295.593 180.18" enable-background="new 0 0 295.593 180.18"
	 xml:space="preserve">
<g id="trash">
	
		<polygon fill="none" stroke="#000000" stroke-width="3" stroke-linecap="round" stroke-linejoin="round" stroke-miterlimit="10" points="
		5.737,114.96 1.5,101.721 12.593,93.562 23.687,101.771 19.449,114.96 	"/>
	
		<polygon fill="none" stroke="#000000" stroke-width="3" stroke-linecap="round" stroke-linejoin="round" stroke-miterlimit="10" points="
		16.737,110.96 12.5,97.721 23.593,89.562 34.687,97.771 30.449,110.96 	"/>
	
		<polygon fill="none" stroke="#000000" stroke-width="3" stroke-linecap="round" stroke-linejoin="round" stroke-miterlimit="10" points="
		32.737,114.96 28.5,101.721 39.593,93.562 50.687,101.771 46.449,114.96 	"/>
	
		<polygon fill="none" stroke="#000000" stroke-width="3" stroke-linecap="round" stroke-linejoin="round" stroke-miterlimit="10" points="
		27.038,101.401 17.536,91.583 23.987,79.5 37.473,81.848 39.362,95.392 	"/>
	
		<polygon fill="none" stroke="#000000" stroke-width="3" stroke-linecap="round" stroke-linejoin="round" stroke-miterlimit="10" points="
		132.038,23.401 122.537,13.583 128.987,1.5 142.473,3.848 144.363,17.392 	"/>
	
		<polygon fill="none" stroke="#000000" stroke-width="3" stroke-linecap="round" stroke-linejoin="round" stroke-miterlimit="10" points="
		34.457,98.734 37.149,85.34 50.758,83.793 56.479,96.23 46.399,105.472 	"/>
	
		<polygon fill="none" stroke="#000000" stroke-width="3" stroke-linecap="round" stroke-linejoin="round" stroke-miterlimit="10" points="
		39.436,109.694 42.176,96.31 55.792,94.812 61.467,107.27 51.354,116.475 	"/>
	
		<polygon fill="none" stroke="#000000" stroke-width="3" stroke-linecap="round" stroke-linejoin="round" stroke-miterlimit="10" points="
		68.136,178.68 61.227,166.894 70.352,156.678 82.9,162.149 81.534,175.757 	"/>
	
		<rect x="5.093" y="110.96" fill="#D3D3D3" stroke="#000000" stroke-width="3" stroke-linecap="round" stroke-linejoin="round" stroke-miterlimit="10" width="55" height="67"/>
	
		<line fill="none" stroke="#000000" stroke-linecap="round" stroke-linejoin="round" stroke-miterlimit="10" x1="147.593" y1="8.46" x2="158.593" y2="9.46"/>
	
		<line fill="none" stroke="#000000" stroke-linecap="round" stroke-linejoin="round" stroke-miterlimit="10" x1="148.593" y1="20.401" x2="154.093" y2="23.71"/>
</g>
<g id="pen">
	
		<line fill="none" stroke="#000000" stroke-width="3" stroke-linecap="round" stroke-linejoin="round" stroke-miterlimit="10" x1="242.093" y1="87.46" x2="229.593" y2="79.5"/>
</g>
<g id="paper">
	
		<rect x="269.593" y="89.46" fill="none" stroke="#000000" stroke-width="2" stroke-linecap="round" stroke-linejoin="round" stroke-miterlimit="10" width="23" height="6"/>
	
		<rect x="268.593" y="81.46" fill="none" stroke="#000000" stroke-width="2" stroke-linecap="round" stroke-linejoin="round" stroke-miterlimit="10" width="23" height="6"/>
</g>
<g id="table">
	
		<line fill="none" stroke="#5B322F" stroke-width="4" stroke-linecap="round" stroke-linejoin="round" stroke-miterlimit="10" x1="229.593" y1="177.46" x2="229.593" y2="103.46"/>
	
		<line fill="none" stroke="#5B322F" stroke-width="10" stroke-linecap="round" stroke-linejoin="round" stroke-miterlimit="10" x1="229.593" y1="99.46" x2="290.593" y2="99.46"/>
	
		<line fill="none" stroke="#5B322F" stroke-width="4" stroke-linecap="round" stroke-linejoin="round" stroke-miterlimit="10" x1="290.593" y1="103.46" x2="290.593" y2="177.46"/>
</g>
<g id="person">
	
		<line fill="none" stroke="#000000" stroke-width="8" stroke-linecap="round" stroke-linejoin="round" stroke-miterlimit="10" x1="159.593" y1="118.46" x2="206.593" y2="118.46"/>
	
		<line fill="none" stroke="#000000" stroke-width="8" stroke-linecap="round" stroke-linejoin="round" stroke-miterlimit="10" x1="206.593" y1="118.46" x2="206.593" y2="174.46"/>
	
		<line fill="none" stroke="#000000" stroke-width="8" stroke-linecap="round" stroke-linejoin="round" stroke-miterlimit="10" x1="159.593" y1="118.46" x2="206.593" y2="48.46"/>
	
		<line fill="none" stroke="#000000" stroke-width="8" stroke-linecap="round" stroke-linejoin="round" stroke-miterlimit="10" x1="191.136" y1="71.481" x2="213.093" y2="89.437"/>
	
		<line fill="none" stroke="#000000" stroke-width="8" stroke-linecap="round" stroke-linejoin="round" stroke-miterlimit="10" x1="211.593" y1="88.928" x2="247.593" y2="91.923"/>
	
		<circle fill="none" stroke="#000000" stroke-width="8" stroke-linecap="round" stroke-linejoin="round" stroke-miterlimit="10" cx="222.593" cy="31.96" r="19.5"/>
	
		<line fill="none" stroke="#000000" stroke-width="8" stroke-linecap="round" stroke-linejoin="round" stroke-miterlimit="10" x1="191.136" y1="68.46" x2="183.093" y2="35.96"/>
	
		<line fill="none" stroke="#000000" stroke-width="8" stroke-linecap="round" stroke-linejoin="round" stroke-miterlimit="10" x1="183.093" y1="32.96" x2="164.593" y2="20.46"/>
	
		<line fill="none" stroke="#000000" stroke-width="8" stroke-linecap="round" stroke-linejoin="round" stroke-miterlimit="10" x1="210.593" y1="174.46" x2="220.593" y2="174.46"/>
	
		<rect x="35.093" y="8.96" fill="none" stroke="#000000" stroke-linecap="round" stroke-linejoin="round" stroke-miterlimit="10" width="42" height="56"/>
	<circle stroke="#000000" stroke-linecap="round" stroke-linejoin="round" stroke-miterlimit="10" cx="37.593" cy="11.451" r="1"/>
	<circle stroke="#000000" stroke-linecap="round" stroke-linejoin="round" stroke-miterlimit="10" cx="37.593" cy="62.451" r="1"/>
	<circle stroke="#000000" stroke-linecap="round" stroke-linejoin="round" stroke-miterlimit="10" cx="74.593" cy="62.451" r="1"/>
	<circle stroke="#000000" stroke-linecap="round" stroke-linejoin="round" stroke-miterlimit="10" cx="74.593" cy="11.451" r="1"/>
</g>
<g id="chair">
	
		<line fill="none" stroke="#999999" stroke-width="4" stroke-linecap="round" stroke-linejoin="round" stroke-miterlimit="10" x1="198.593" y1="177.46" x2="198.593" y2="123.46"/>
	
		<line fill="none" stroke="#999999" stroke-width="4" stroke-linecap="round" stroke-linejoin="round" stroke-miterlimit="10" x1="198.593" y1="123.46" x2="153.593" y2="123.46"/>
	
		<line fill="none" stroke="#999999" stroke-width="4" stroke-linecap="round" stroke-linejoin="round" stroke-miterlimit="10" x1="153.593" y1="123.46" x2="153.593" y2="177.46"/>
	
		<line fill="none" stroke="#999999" stroke-width="4" stroke-linecap="round" stroke-linejoin="round" stroke-miterlimit="10" x1="153.593" y1="123.46" x2="153.593" y2="64.46"/>
</g>
<g id="Layer_1_1_">
	<g>
		<g>
			<path fill="none" stroke="#0071BC" stroke-miterlimit="10" d="M48.774,40.505c0,0-0.154,0.1-0.407,0.282"/>
			<path fill="none" stroke="#0071BC" stroke-miterlimit="10" stroke-dasharray="0.9017,1.8034" d="M46.955,41.903
				c-0.607,0.527-1.274,1.176-1.845,1.894c-1.037,1.304-2.101,4.409-2.178,4.778c-0.086,0.412-0.113,1.257-0.118,2.001"/>
			<path fill="none" stroke="#0071BC" stroke-miterlimit="10" d="M42.817,51.483c0.004,0.303,0.009,0.499,0.009,0.499
				s0.107-0.157,0.279-0.411"/>
			<path fill="none" stroke="#0071BC" stroke-miterlimit="10" stroke-dasharray="1.0487,2.0974" d="M44.292,49.835
				c0.538-0.782,1.068-1.546,1.284-1.835c0.214-0.286,1.369-1.211,2.299-1.938"/>
			<path fill="none" stroke="#0071BC" stroke-miterlimit="10" d="M48.702,45.425c0.243-0.186,0.396-0.302,0.396-0.302"/>
		</g>
	</g>
	<g>
		<path fill="none" d="M43.821,47.461"/>
	</g>
	<g>
		<g>
			<path fill="none" stroke="#0071BC" stroke-miterlimit="10" d="M64.215,40.505c0,0,0.154,0.1,0.407,0.281"/>
			<path fill="none" stroke="#0071BC" stroke-miterlimit="10" stroke-dasharray="0.9017,1.8034" d="M66.035,41.903
				c0.607,0.528,1.274,1.177,1.846,1.895c1.037,1.304,2.101,4.409,2.178,4.778c0.086,0.412,0.113,1.257,0.118,2.001"/>
			<path fill="none" stroke="#0071BC" stroke-miterlimit="10" d="M70.173,51.483c-0.004,0.303-0.009,0.499-0.009,0.499
				s-0.107-0.157-0.279-0.411"/>
			<path fill="none" stroke="#0071BC" stroke-miterlimit="10" stroke-dasharray="1.0487,2.0974" d="M68.698,49.835
				C68.16,49.053,67.63,48.289,67.414,48c-0.214-0.286-1.369-1.211-2.299-1.938"/>
			<path fill="none" stroke="#0071BC" stroke-miterlimit="10" d="M64.288,45.425c-0.243-0.186-0.396-0.302-0.396-0.302"/>
		</g>
	</g>
	<g>
		<g>
			<path fill="none" stroke="#0071BC" stroke-miterlimit="10" d="M62.739,49.406h0.5c0.039-0.159,0.076-0.32,0.113-0.482"/>
			<path fill="none" stroke="#0071BC" stroke-miterlimit="10" stroke-dasharray="1.0297,2.0593" d="M63.747,46.903
				c0.373-2.232,0.579-4.677,0.579-7.239c0-8.229-4.724-15.24-6.808-17.935"/>
			<path fill="none" stroke="#0071BC" stroke-miterlimit="10" d="M56.874,20.927c-0.206-0.246-0.323-0.375-0.323-0.375
				s-0.117,0.129-0.323,0.375"/>
			<path fill="none" stroke="#0071BC" stroke-miterlimit="10" stroke-dasharray="1.0297,2.0594" d="M54.967,22.551
				c-2.273,3.132-6.193,9.618-6.193,17.112c0,2.953,0.273,5.75,0.76,8.246"/>
			<path fill="none" stroke="#0071BC" stroke-miterlimit="10" d="M49.748,48.923c0.037,0.162,0.074,0.323,0.113,0.482h0.5"/>
			
				<line fill="none" stroke="#0071BC" stroke-miterlimit="10" stroke-dasharray="1.1253,2.2506" x1="52.611" y1="49.406" x2="61.614" y2="49.406"/>
		</g>
	</g>
	<g>
		
			<ellipse fill="none" stroke="#0071BC" stroke-miterlimit="10" stroke-dasharray="1.0497,2.0993" cx="56.55" cy="36.383" rx="3.466" ry="3.56"/>
	</g>
	<g>
		<g>
			<line fill="none" stroke="#0071BC" stroke-miterlimit="10" x1="51.586" y1="28.219" x2="52.086" y2="28.219"/>
			
				<line fill="none" stroke="#0071BC" stroke-miterlimit="10" stroke-dasharray="1.116,2.2321" x1="54.318" y1="28.219" x2="59.898" y2="28.219"/>
			<line fill="none" stroke="#0071BC" stroke-miterlimit="10" x1="61.014" y1="28.219" x2="61.514" y2="28.219"/>
		</g>
	</g>
	<g>
		<g>
			<line fill="none" stroke="#0071BC" stroke-miterlimit="10" x1="49.188" y1="45.823" x2="49.688" y2="45.823"/>
			
				<line fill="none" stroke="#0071BC" stroke-miterlimit="10" stroke-dasharray="0.9802,1.9604" x1="51.649" y1="45.823" x2="62.431" y2="45.823"/>
			<line fill="none" stroke="#0071BC" stroke-miterlimit="10" x1="63.411" y1="45.823" x2="63.911" y2="45.823"/>
		</g>
	</g>
	<line fill="none" stroke="#231F20" stroke-miterlimit="10" x1="39.093" y1="18.46" x2="39.093" y2="54.46"/>
	<line fill="none" stroke="#231F20" stroke-miterlimit="10" x1="37.593" y1="18.96" x2="40.593" y2="18.96"/>
	<line fill="none" stroke="#231F20" stroke-miterlimit="10" x1="37.593" y1="54.96" x2="40.593" y2="54.96"/>
	<line fill="none" stroke="#231F20" stroke-miterlimit="10" x1="44.593" y1="56.96" x2="67.593" y2="56.96"/>
	<line fill="none" stroke="#231F20" stroke-miterlimit="10" x1="67.093" y1="58.46" x2="67.093" y2="55.46"/>
	<line fill="none" stroke="#231F20" stroke-miterlimit="10" x1="44.093" y1="58.46" x2="44.093" y2="55.46"/>
	<rect x="43.177" y="12.626" fill="none" width="28.583" height="3.333"/>
	<text transform="matrix(1 0 0 1 43.1768 15.467)" font-family="'MyriadPro-Regular'" font-size="4">Rocket Ship v 1</text>
</g>
</svg>
