<?xml version="1.0" encoding="utf-8"?>
<!-- Generator: Adobe Illustrator 16.0.0, SVG Export Plug-In . SVG Version: 6.00 Build 0)  -->
<!DOCTYPE svg PUBLIC "-//W3C//DTD SVG 1.1//EN" "http://www.w3.org/Graphics/SVG/1.1/DTD/svg11.dtd">
<svg version="1.1" id="Layer_1" xmlns="http://www.w3.org/2000/svg" xmlns:xlink="http://www.w3.org/1999/xlink" x="0px" y="0px"
	 width="329.334px" height="112.084px" viewBox="0 0 329.334 112.084" enable-background="new 0 0 329.334 112.084"
	 xml:space="preserve">
<g id="person_3">
	
		<line fill="none" stroke="#231F20" stroke-width="4" stroke-linecap="round" stroke-linejoin="round" stroke-miterlimit="10" x1="245.808" y1="82.953" x2="203.526" y2="66.464"/>
	
		<line fill="none" stroke="#231F20" stroke-width="4" stroke-linecap="round" stroke-linejoin="round" stroke-miterlimit="10" x1="250.001" y1="102.011" x2="264.668" y2="104.666"/>
	
		<line fill="none" stroke="#231F20" stroke-width="4" stroke-linecap="round" stroke-linejoin="round" stroke-miterlimit="10" x1="245.808" y1="82.953" x2="250.001" y2="102.011"/>
	
		<line fill="none" stroke="#231F20" stroke-width="4" stroke-linecap="round" stroke-linejoin="round" stroke-miterlimit="10" x1="243.334" y1="83.577" x2="235.001" y2="97.778"/>
	
		<line fill="none" stroke="#231F20" stroke-width="4" stroke-linecap="round" stroke-linejoin="round" stroke-miterlimit="10" x1="235.001" y1="97.778" x2="245.808" y2="104.666"/>
	
		<line fill="none" stroke="#231F20" stroke-width="4" stroke-linecap="round" stroke-linejoin="round" stroke-miterlimit="10" x1="218.733" y1="72.396" x2="205.334" y2="80"/>
	
		<line fill="none" stroke="#231F20" stroke-width="4" stroke-linecap="round" stroke-linejoin="round" stroke-miterlimit="10" x1="205" y1="80" x2="192" y2="80"/>
	
		<line fill="none" stroke="#231F20" stroke-width="4" stroke-linecap="round" stroke-linejoin="round" stroke-miterlimit="10" x1="216.625" y1="73.591" x2="216.334" y2="88.667"/>
	
		<line fill="none" stroke="#231F20" stroke-width="4" stroke-linecap="round" stroke-linejoin="round" stroke-miterlimit="10" x1="216.334" y1="88.667" x2="209.334" y2="99.333"/>
	
		<circle fill="none" stroke="#231F20" stroke-width="4" stroke-linecap="round" stroke-linejoin="round" stroke-miterlimit="10" cx="191.501" cy="66.167" r="12.167"/>
</g>
<g id="Layer_1_1_">
	<path fill="#EA5744" stroke="#231F20" stroke-width="4" stroke-miterlimit="10" d="M63.771,83.47c0,0,4.367,6.731,10.234,11.397
		c4.057,3.225,13.713,6.534,14.859,6.774c2.588,0.541,10.6,0.326,10.6,0.326s-10.27-6.97-12.383-8.551
		c-1.533-1.146-8.949-10.955-8.949-10.955L63.771,83.47z"/>
	<path fill="#EA5744" stroke="#231F20" stroke-width="4" stroke-miterlimit="10" d="M176.631,83.577"/>
	<path fill="#EA5744" stroke="#231F20" stroke-width="4" stroke-miterlimit="10" d="M38.092,26.517c0,0,7.633,2.476,13.66,6.934
		c4.166,3.083,9.862,11.553,10.392,12.598c1.192,2.36,3.062,10.152,3.062,10.152s-9.393-8.114-11.467-9.746
		c-1.506-1.183-12.898-5.807-12.898-5.807L38.092,26.517z"/>
	<path fill="#C4C8CC" stroke="#231F20" stroke-width="4" stroke-miterlimit="10" d="M183.745,49.877
		c-9.12-0.451-19.525,0.27-30.399,2.335c-32.251,6.126-53.881,34.85-53.881,34.85s30.656,18.793,62.907,12.666
		c10.874-2.064,20.818-5.211,29.138-8.975L183.745,49.877z M149.851,88.46c-6.008,1.141-11.779-2.676-12.89-8.525
		s2.858-11.517,8.866-12.658c6.008-1.141,11.779,2.676,12.89,8.525C159.829,81.651,155.859,87.318,149.851,88.46z"/>
	<line fill="none" stroke="#231F20" stroke-width="4" stroke-miterlimit="10" x1="125.773" y1="97.778" x2="120.011" y2="67.444"/>
	<line fill="none" stroke="#231F20" stroke-width="4" stroke-miterlimit="10" x1="180.95" y1="94.886" x2="172.406" y2="49.903"/>
	
		<line fill="none" stroke="#231F20" stroke-width="4" stroke-linecap="round" stroke-linejoin="round" stroke-miterlimit="10" x1="17.334" y1="37" x2="28.5" y2="34.425"/>
	
		<line fill="none" stroke="#231F20" stroke-width="4" stroke-linecap="round" stroke-linejoin="round" stroke-miterlimit="10" x1="29" y1="34" x2="29" y2="24"/>
</g>
<g id="person">
	
		<line fill="none" stroke="#231F20" stroke-width="4" stroke-linecap="round" stroke-linejoin="round" stroke-miterlimit="10" x1="296" y1="110.084" x2="312" y2="74.392"/>
	
		<line fill="none" stroke="#231F20" stroke-width="4" stroke-linecap="round" stroke-linejoin="round" stroke-miterlimit="10" x1="312" y1="74.392" x2="313.334" y2="29.026"/>
	
		<line fill="none" stroke="#231F20" stroke-width="4" stroke-linecap="round" stroke-linejoin="round" stroke-miterlimit="10" x1="312" y1="44.359" x2="296" y2="51.709"/>
	
		<circle fill="none" stroke="#231F20" stroke-width="4" stroke-linecap="round" stroke-linejoin="round" stroke-miterlimit="10" cx="309.501" cy="17.167" r="12.167"/>
	
		<line fill="none" stroke="#231F20" stroke-width="4" stroke-linecap="round" stroke-linejoin="round" stroke-miterlimit="10" x1="312" y1="74.392" x2="327.334" y2="110.084"/>
	
		<line fill="none" stroke="#231F20" stroke-width="4" stroke-linecap="round" stroke-linejoin="round" stroke-miterlimit="10" x1="296" y1="51.709" x2="286.483" y2="43.448"/>
	
		<line fill="none" stroke="#231F20" stroke-width="4" stroke-linecap="round" stroke-linejoin="round" stroke-miterlimit="10" x1="312" y1="38.667" x2="296" y2="40"/>
	
		<line fill="none" stroke="#231F20" stroke-width="4" stroke-linecap="round" stroke-linejoin="round" stroke-miterlimit="10" x1="296" y1="40" x2="286.483" y2="43.448"/>
	
		<line fill="none" stroke="#231F20" stroke-width="4" stroke-linecap="round" stroke-linejoin="round" stroke-miterlimit="10" x1="33.334" y1="107.084" x2="17.334" y2="71.392"/>
	
		<line fill="none" stroke="#231F20" stroke-width="4" stroke-linecap="round" stroke-linejoin="round" stroke-miterlimit="10" x1="17.334" y1="71.392" x2="16" y2="26.026"/>
	
		<line fill="none" stroke="#231F20" stroke-width="4" stroke-linecap="round" stroke-linejoin="round" stroke-miterlimit="10" x1="17.334" y1="41.359" x2="33.334" y2="48.709"/>
	
		<circle fill="none" stroke="#231F20" stroke-width="4" stroke-linecap="round" stroke-linejoin="round" stroke-miterlimit="10" cx="19.833" cy="14.167" r="12.167"/>
	
		<line fill="none" stroke="#231F20" stroke-width="4" stroke-linecap="round" stroke-linejoin="round" stroke-miterlimit="10" x1="17.334" y1="71.392" x2="2" y2="107.084"/>
	
		<line fill="none" stroke="#231F20" stroke-width="4" stroke-linecap="round" stroke-linejoin="round" stroke-miterlimit="10" x1="33.334" y1="48.709" x2="42.85" y2="40.448"/>
</g>
<g id="person_2">
</g>
<g id="laptop">
	
		<line fill="none" stroke="#999999" stroke-width="2" stroke-linecap="round" stroke-linejoin="round" stroke-miterlimit="10" x1="270" y1="24.491" x2="277.333" y2="44.359"/>
	
		<line fill="none" stroke="#999999" stroke-width="2" stroke-linecap="round" stroke-linejoin="round" stroke-miterlimit="10" x1="277" y1="43" x2="295" y2="43"/>
</g>
</svg>
